<mxfile host="Electron" agent="Mozilla/5.0 (Windows NT 10.0; Win64; x64) AppleWebKit/537.36 (KHTML, like Gecko) draw.io/27.0.2 Chrome/134.0.6998.205 Electron/35.3.0 Safari/537.36" version="27.0.2">
  <diagram name="Página-1" id="cDax99gPwj3vk41TI5xl">
    <mxGraphModel dx="4901" dy="2500" grid="1" gridSize="10" guides="1" tooltips="1" connect="1" arrows="1" fold="1" page="1" pageScale="1" pageWidth="827" pageHeight="1169" math="0" shadow="0">
      <root>
        <mxCell id="0" />
        <mxCell id="1" parent="0" />
        <mxCell id="snSn4Ekb-qnuf4AXsMtO-1" value="&lt;h2&gt;&lt;font face=&quot;Lucida Console&quot;&gt;Comienzo&lt;/font&gt;&lt;/h2&gt;" style="rounded=1;whiteSpace=wrap;html=1;" vertex="1" parent="1">
          <mxGeometry x="230" y="60" width="160" height="60" as="geometry" />
        </mxCell>
        <mxCell id="snSn4Ekb-qnuf4AXsMtO-3" value="&lt;h2&gt;&lt;font style=&quot;font-size: 15px;&quot;&gt;&lt;font face=&quot;Lucida Console&quot;&gt;Docente&lt;br&gt;&lt;/font&gt;&lt;/font&gt;&lt;font style=&quot;font-size: 15px;&quot;&gt;&lt;font face=&quot;Lucida Console&quot;&gt;o&amp;nbsp;&lt;br&gt;&lt;/font&gt;&lt;/font&gt;&lt;font style=&quot;font-size: 15px;&quot;&gt;&lt;font face=&quot;Lucida Console&quot;&gt;Estudiante&lt;/font&gt;&lt;/font&gt;&lt;/h2&gt;" style="rhombus;whiteSpace=wrap;html=1;" vertex="1" parent="1">
          <mxGeometry x="200" y="270" width="220" height="120" as="geometry" />
        </mxCell>
        <mxCell id="snSn4Ekb-qnuf4AXsMtO-5" value="&lt;h2&gt;&lt;font face=&quot;Lucida Console&quot;&gt;Autenticación&lt;/font&gt;&lt;/h2&gt;" style="rounded=0;whiteSpace=wrap;html=1;" vertex="1" parent="1">
          <mxGeometry x="230" y="160" width="160" height="50" as="geometry" />
        </mxCell>
        <mxCell id="snSn4Ekb-qnuf4AXsMtO-6" value="" style="endArrow=classic;html=1;rounded=0;exitX=0.5;exitY=1;exitDx=0;exitDy=0;entryX=0.5;entryY=0;entryDx=0;entryDy=0;fontSize=12;strokeWidth=3;" edge="1" parent="1" source="snSn4Ekb-qnuf4AXsMtO-1" target="snSn4Ekb-qnuf4AXsMtO-5">
          <mxGeometry width="50" height="50" relative="1" as="geometry">
            <mxPoint x="380" y="230" as="sourcePoint" />
            <mxPoint x="430" y="180" as="targetPoint" />
          </mxGeometry>
        </mxCell>
        <mxCell id="snSn4Ekb-qnuf4AXsMtO-7" value="" style="endArrow=classic;html=1;rounded=0;exitX=0.5;exitY=1;exitDx=0;exitDy=0;entryX=0.5;entryY=0;entryDx=0;entryDy=0;strokeWidth=3;" edge="1" parent="1" source="snSn4Ekb-qnuf4AXsMtO-5" target="snSn4Ekb-qnuf4AXsMtO-3">
          <mxGeometry width="50" height="50" relative="1" as="geometry">
            <mxPoint x="380" y="290" as="sourcePoint" />
            <mxPoint x="430" y="240" as="targetPoint" />
          </mxGeometry>
        </mxCell>
        <mxCell id="snSn4Ekb-qnuf4AXsMtO-9" value="&lt;h2&gt;&lt;font face=&quot;Lucida Console&quot;&gt;Visualización calendario&lt;/font&gt;&lt;/h2&gt;" style="rounded=0;whiteSpace=wrap;html=1;" vertex="1" parent="1">
          <mxGeometry x="-610" y="510" width="170" height="60" as="geometry" />
        </mxCell>
        <mxCell id="snSn4Ekb-qnuf4AXsMtO-10" value="&lt;h2&gt;Docente&lt;/h2&gt;" style="text;html=1;align=center;verticalAlign=middle;whiteSpace=wrap;rounded=0;fontFamily=Lucida Console;" vertex="1" parent="1">
          <mxGeometry x="-290" y="420" width="60" height="30" as="geometry" />
        </mxCell>
        <mxCell id="snSn4Ekb-qnuf4AXsMtO-11" value="" style="endArrow=classic;html=1;rounded=0;exitX=0.5;exitY=1;exitDx=0;exitDy=0;strokeWidth=3;" edge="1" parent="1">
          <mxGeometry width="50" height="50" relative="1" as="geometry">
            <mxPoint x="310" y="390" as="sourcePoint" />
            <mxPoint x="-210" y="435" as="targetPoint" />
            <Array as="points">
              <mxPoint x="310" y="435" />
            </Array>
          </mxGeometry>
        </mxCell>
        <mxCell id="snSn4Ekb-qnuf4AXsMtO-13" value="&lt;h2&gt;&lt;font face=&quot;Lucida Console&quot;&gt;Visualización estudiantes&lt;/font&gt;&lt;/h2&gt;" style="rounded=0;whiteSpace=wrap;html=1;" vertex="1" parent="1">
          <mxGeometry x="-420" y="510" width="160" height="60" as="geometry" />
        </mxCell>
        <mxCell id="snSn4Ekb-qnuf4AXsMtO-14" value="&lt;h2&gt;&lt;font face=&quot;Lucida Console&quot;&gt;Asignación de tareas y fechas de entrega&lt;/font&gt;&lt;/h2&gt;" style="rounded=0;whiteSpace=wrap;html=1;" vertex="1" parent="1">
          <mxGeometry x="-240" y="510" width="220" height="100" as="geometry" />
        </mxCell>
        <mxCell id="snSn4Ekb-qnuf4AXsMtO-15" value="&lt;h2&gt;&lt;font face=&quot;Lucida Console&quot;&gt;Visualización de entregas&lt;/font&gt;&lt;/h2&gt;" style="rounded=0;whiteSpace=wrap;html=1;" vertex="1" parent="1">
          <mxGeometry x="5" y="520" width="190" height="60" as="geometry" />
        </mxCell>
        <mxCell id="snSn4Ekb-qnuf4AXsMtO-16" value="&lt;h2&gt;&lt;font face=&quot;Lucida Console&quot;&gt;Visualización calendario&lt;/font&gt;&lt;/h2&gt;" style="rounded=0;whiteSpace=wrap;html=1;" vertex="1" parent="1">
          <mxGeometry x="760" y="520" width="170" height="60" as="geometry" />
        </mxCell>
        <mxCell id="snSn4Ekb-qnuf4AXsMtO-17" value="&lt;h2&gt;&lt;font face=&quot;Lucida Console&quot;&gt;Estudiante&lt;/font&gt;&lt;/h2&gt;" style="text;html=1;align=center;verticalAlign=middle;whiteSpace=wrap;rounded=0;" vertex="1" parent="1">
          <mxGeometry x="970" y="420" width="60" height="30" as="geometry" />
        </mxCell>
        <mxCell id="snSn4Ekb-qnuf4AXsMtO-18" value="&lt;h2&gt;&lt;font face=&quot;Lucida Console&quot;&gt;Carga de tareas&lt;/font&gt;&lt;/h2&gt;" style="rounded=0;whiteSpace=wrap;html=1;" vertex="1" parent="1">
          <mxGeometry x="950.5" y="520" width="120" height="60" as="geometry" />
        </mxCell>
        <mxCell id="snSn4Ekb-qnuf4AXsMtO-19" value="&lt;h2&gt;&lt;font face=&quot;Lucida Console&quot;&gt;Visualización de fechas de entrga&lt;/font&gt;&lt;/h2&gt;" style="rounded=0;whiteSpace=wrap;html=1;" vertex="1" parent="1">
          <mxGeometry x="1101" y="520" width="200" height="60" as="geometry" />
        </mxCell>
        <mxCell id="snSn4Ekb-qnuf4AXsMtO-22" value="" style="endArrow=classic;html=1;rounded=0;exitX=0.5;exitY=1;exitDx=0;exitDy=0;entryX=0.5;entryY=0;entryDx=0;entryDy=0;strokeWidth=3;" edge="1" parent="1" source="snSn4Ekb-qnuf4AXsMtO-18" target="snSn4Ekb-qnuf4AXsMtO-23">
          <mxGeometry width="50" height="50" relative="1" as="geometry">
            <mxPoint x="1015" y="700" as="sourcePoint" />
            <mxPoint x="1005" y="640" as="targetPoint" />
          </mxGeometry>
        </mxCell>
        <mxCell id="snSn4Ekb-qnuf4AXsMtO-23" value="&lt;h2&gt;&lt;font face=&quot;Lucida Console&quot;&gt;Es la fecha de carga&amp;nbsp;&lt;br&gt;&lt;/font&gt;&lt;font face=&quot;Lucida Console&quot;&gt;menor a la asignada&lt;/font&gt;&lt;/h2&gt;" style="rhombus;whiteSpace=wrap;html=1;" vertex="1" parent="1">
          <mxGeometry x="868" y="710" width="285" height="155" as="geometry" />
        </mxCell>
        <mxCell id="snSn4Ekb-qnuf4AXsMtO-24" value="&lt;h2&gt;&lt;font face=&quot;Lucida Console&quot;&gt;Se carga la tarea y se clasifica como entregada a tiempo&lt;/font&gt;&lt;/h2&gt;" style="rounded=0;whiteSpace=wrap;html=1;" vertex="1" parent="1">
          <mxGeometry x="724" y="875" width="150" height="200" as="geometry" />
        </mxCell>
        <mxCell id="snSn4Ekb-qnuf4AXsMtO-25" value="&lt;h2&gt;&lt;font face=&quot;Lucida Console&quot;&gt;Se carga la tarea y se clasifica como entregada tarde&lt;/font&gt;&lt;/h2&gt;" style="rounded=0;whiteSpace=wrap;html=1;" vertex="1" parent="1">
          <mxGeometry x="1145" y="875" width="150" height="200" as="geometry" />
        </mxCell>
        <mxCell id="snSn4Ekb-qnuf4AXsMtO-27" value="&lt;h2&gt;&lt;font face=&quot;Lucida Console&quot;&gt;Es la fecha de carga&amp;nbsp;&lt;br&gt;&lt;/font&gt;&lt;font face=&quot;Lucida Console&quot;&gt;menor a la asignada&lt;/font&gt;&lt;/h2&gt;" style="rhombus;whiteSpace=wrap;html=1;" vertex="1" parent="1">
          <mxGeometry x="-70" y="620" width="340" height="105" as="geometry" />
        </mxCell>
        <mxCell id="snSn4Ekb-qnuf4AXsMtO-29" value="" style="endArrow=classic;html=1;rounded=0;exitX=0.5;exitY=1;exitDx=0;exitDy=0;entryX=0.5;entryY=0;entryDx=0;entryDy=0;strokeWidth=2;" edge="1" parent="1" source="snSn4Ekb-qnuf4AXsMtO-15" target="snSn4Ekb-qnuf4AXsMtO-27">
          <mxGeometry width="50" height="50" relative="1" as="geometry">
            <mxPoint x="150" y="600" as="sourcePoint" />
            <mxPoint x="200" y="550" as="targetPoint" />
          </mxGeometry>
        </mxCell>
        <mxCell id="snSn4Ekb-qnuf4AXsMtO-30" value="&lt;h2&gt;&lt;font face=&quot;Lucida Console&quot;&gt;Se visualiza la entrgea cargada&lt;/font&gt;&lt;/h2&gt;" style="rounded=0;whiteSpace=wrap;html=1;" vertex="1" parent="1">
          <mxGeometry x="-230" y="750" width="140" height="100" as="geometry" />
        </mxCell>
        <mxCell id="snSn4Ekb-qnuf4AXsMtO-32" value="&lt;h2&gt;&lt;font face=&quot;Lucida Console&quot;&gt;Se acepta la&amp;nbsp;&lt;/font&gt;&lt;/h2&gt;&lt;h2&gt;&lt;font face=&quot;Lucida Console&quot;&gt;entrega&lt;/font&gt;&lt;/h2&gt;" style="rhombus;whiteSpace=wrap;html=1;" vertex="1" parent="1">
          <mxGeometry x="240" y="740" width="240" height="140" as="geometry" />
        </mxCell>
        <mxCell id="snSn4Ekb-qnuf4AXsMtO-33" value="&lt;h2&gt;&lt;font face=&quot;Lucida Console&quot;&gt;Se visualiza la entrega y se envía notificación al estudiante&lt;/font&gt;&lt;/h2&gt;" style="rounded=0;whiteSpace=wrap;html=1;" vertex="1" parent="1">
          <mxGeometry x="85" y="880" width="170" height="175" as="geometry" />
        </mxCell>
        <mxCell id="snSn4Ekb-qnuf4AXsMtO-34" value="&lt;h2&gt;&lt;font face=&quot;Lucida Console&quot;&gt;Se rechaza la entrega y se notifica al estudiante&lt;/font&gt;&lt;/h2&gt;" style="rounded=0;whiteSpace=wrap;html=1;" vertex="1" parent="1">
          <mxGeometry x="460" y="880" width="180" height="140" as="geometry" />
        </mxCell>
        <mxCell id="snSn4Ekb-qnuf4AXsMtO-36" value="&lt;h2&gt;Si&lt;/h2&gt;" style="text;html=1;align=center;verticalAlign=middle;whiteSpace=wrap;rounded=0;fontFamily=Lucida Console;" vertex="1" parent="1">
          <mxGeometry x="-190" y="657.5" width="60" height="30" as="geometry" />
        </mxCell>
        <mxCell id="snSn4Ekb-qnuf4AXsMtO-37" value="&lt;h2&gt;&lt;font face=&quot;Lucida Console&quot;&gt;No&lt;/font&gt;&lt;/h2&gt;" style="text;html=1;align=center;verticalAlign=middle;whiteSpace=wrap;rounded=0;" vertex="1" parent="1">
          <mxGeometry x="330" y="657.5" width="60" height="30" as="geometry" />
        </mxCell>
        <mxCell id="snSn4Ekb-qnuf4AXsMtO-38" value="&lt;h2&gt;&lt;font face=&quot;Lucida Console&quot;&gt;Si&lt;/font&gt;&lt;/h2&gt;" style="text;html=1;align=center;verticalAlign=middle;whiteSpace=wrap;rounded=0;" vertex="1" parent="1">
          <mxGeometry x="140" y="795" width="60" height="30" as="geometry" />
        </mxCell>
        <mxCell id="snSn4Ekb-qnuf4AXsMtO-39" value="&lt;h2&gt;&lt;font face=&quot;Lucida Console&quot;&gt;No&lt;/font&gt;&lt;/h2&gt;" style="text;html=1;align=center;verticalAlign=middle;whiteSpace=wrap;rounded=0;" vertex="1" parent="1">
          <mxGeometry x="520" y="795" width="60" height="30" as="geometry" />
        </mxCell>
        <mxCell id="snSn4Ekb-qnuf4AXsMtO-40" value="&lt;h4&gt;&lt;font face=&quot;Lucida Console&quot;&gt;Si&lt;/font&gt;&lt;/h4&gt;" style="text;html=1;align=center;verticalAlign=middle;whiteSpace=wrap;rounded=0;" vertex="1" parent="1">
          <mxGeometry x="780" y="772.5" width="40" height="30" as="geometry" />
        </mxCell>
        <mxCell id="snSn4Ekb-qnuf4AXsMtO-41" value="&lt;h4&gt;&lt;font face=&quot;Lucida Console&quot;&gt;No&lt;/font&gt;&lt;/h4&gt;" style="text;html=1;align=center;verticalAlign=middle;whiteSpace=wrap;rounded=0;" vertex="1" parent="1">
          <mxGeometry x="1190" y="772.5" width="60" height="30" as="geometry" />
        </mxCell>
        <mxCell id="snSn4Ekb-qnuf4AXsMtO-42" value="" style="endArrow=classic;html=1;rounded=0;exitX=0;exitY=0.5;exitDx=0;exitDy=0;entryX=1;entryY=0.5;entryDx=0;entryDy=0;entryPerimeter=0;strokeWidth=3;" edge="1" parent="1" source="snSn4Ekb-qnuf4AXsMtO-27" target="snSn4Ekb-qnuf4AXsMtO-36">
          <mxGeometry width="50" height="50" relative="1" as="geometry">
            <mxPoint x="100" y="575" as="sourcePoint" />
            <mxPoint x="150" y="525" as="targetPoint" />
          </mxGeometry>
        </mxCell>
        <mxCell id="snSn4Ekb-qnuf4AXsMtO-43" value="" style="endArrow=classic;html=1;rounded=0;exitX=0.5;exitY=1;exitDx=0;exitDy=0;entryX=0.5;entryY=0;entryDx=0;entryDy=0;strokeWidth=3;" edge="1" parent="1" source="snSn4Ekb-qnuf4AXsMtO-36" target="snSn4Ekb-qnuf4AXsMtO-30">
          <mxGeometry width="50" height="50" relative="1" as="geometry">
            <mxPoint x="100" y="575" as="sourcePoint" />
            <mxPoint x="150" y="525" as="targetPoint" />
          </mxGeometry>
        </mxCell>
        <mxCell id="snSn4Ekb-qnuf4AXsMtO-44" value="" style="endArrow=classic;html=1;rounded=0;exitX=1;exitY=0.5;exitDx=0;exitDy=0;strokeWidth=3;" edge="1" parent="1" source="snSn4Ekb-qnuf4AXsMtO-27" target="snSn4Ekb-qnuf4AXsMtO-37">
          <mxGeometry width="50" height="50" relative="1" as="geometry">
            <mxPoint x="100" y="575" as="sourcePoint" />
            <mxPoint x="150" y="525" as="targetPoint" />
          </mxGeometry>
        </mxCell>
        <mxCell id="snSn4Ekb-qnuf4AXsMtO-45" value="" style="endArrow=classic;html=1;rounded=0;exitX=0.5;exitY=1;exitDx=0;exitDy=0;entryX=0.5;entryY=0;entryDx=0;entryDy=0;strokeWidth=3;" edge="1" parent="1" source="snSn4Ekb-qnuf4AXsMtO-37" target="snSn4Ekb-qnuf4AXsMtO-32">
          <mxGeometry width="50" height="50" relative="1" as="geometry">
            <mxPoint x="100" y="675" as="sourcePoint" />
            <mxPoint x="150" y="625" as="targetPoint" />
          </mxGeometry>
        </mxCell>
        <mxCell id="snSn4Ekb-qnuf4AXsMtO-46" value="" style="endArrow=classic;html=1;rounded=0;exitX=0;exitY=0.5;exitDx=0;exitDy=0;entryX=1;entryY=0.5;entryDx=0;entryDy=0;strokeWidth=3;" edge="1" parent="1" source="snSn4Ekb-qnuf4AXsMtO-32" target="snSn4Ekb-qnuf4AXsMtO-38">
          <mxGeometry width="50" height="50" relative="1" as="geometry">
            <mxPoint x="100" y="675" as="sourcePoint" />
            <mxPoint x="150" y="625" as="targetPoint" />
          </mxGeometry>
        </mxCell>
        <mxCell id="snSn4Ekb-qnuf4AXsMtO-47" value="" style="endArrow=classic;html=1;rounded=0;exitX=0.5;exitY=1;exitDx=0;exitDy=0;entryX=0.5;entryY=0;entryDx=0;entryDy=0;strokeWidth=3;" edge="1" parent="1" source="snSn4Ekb-qnuf4AXsMtO-38" target="snSn4Ekb-qnuf4AXsMtO-33">
          <mxGeometry width="50" height="50" relative="1" as="geometry">
            <mxPoint x="100" y="675" as="sourcePoint" />
            <mxPoint x="150" y="625" as="targetPoint" />
          </mxGeometry>
        </mxCell>
        <mxCell id="snSn4Ekb-qnuf4AXsMtO-48" value="" style="endArrow=classic;html=1;rounded=0;exitX=0.5;exitY=1;exitDx=0;exitDy=0;entryX=0.5;entryY=0;entryDx=0;entryDy=0;strokeWidth=3;" edge="1" parent="1" source="snSn4Ekb-qnuf4AXsMtO-39" target="snSn4Ekb-qnuf4AXsMtO-34">
          <mxGeometry width="50" height="50" relative="1" as="geometry">
            <mxPoint x="100" y="675" as="sourcePoint" />
            <mxPoint x="150" y="625" as="targetPoint" />
          </mxGeometry>
        </mxCell>
        <mxCell id="snSn4Ekb-qnuf4AXsMtO-49" value="" style="endArrow=classic;html=1;rounded=0;exitX=1;exitY=0.5;exitDx=0;exitDy=0;entryX=0;entryY=0.5;entryDx=0;entryDy=0;strokeWidth=3;" edge="1" parent="1" source="snSn4Ekb-qnuf4AXsMtO-32" target="snSn4Ekb-qnuf4AXsMtO-39">
          <mxGeometry width="50" height="50" relative="1" as="geometry">
            <mxPoint x="100" y="675" as="sourcePoint" />
            <mxPoint x="150" y="625" as="targetPoint" />
          </mxGeometry>
        </mxCell>
        <mxCell id="snSn4Ekb-qnuf4AXsMtO-50" value="" style="endArrow=classic;html=1;rounded=0;exitX=0.5;exitY=1;exitDx=0;exitDy=0;entryX=0.5;entryY=0;entryDx=0;entryDy=0;strokeWidth=3;" edge="1" parent="1" source="snSn4Ekb-qnuf4AXsMtO-10" target="snSn4Ekb-qnuf4AXsMtO-9">
          <mxGeometry width="50" height="50" relative="1" as="geometry">
            <mxPoint x="-175" y="500" as="sourcePoint" />
            <mxPoint x="-440" y="480" as="targetPoint" />
            <Array as="points">
              <mxPoint x="-260" y="480" />
              <mxPoint x="-525" y="480" />
            </Array>
          </mxGeometry>
        </mxCell>
        <mxCell id="snSn4Ekb-qnuf4AXsMtO-53" value="" style="endArrow=classic;html=1;rounded=0;entryX=0.5;entryY=0;entryDx=0;entryDy=0;strokeWidth=3;" edge="1" parent="1" target="snSn4Ekb-qnuf4AXsMtO-13">
          <mxGeometry width="50" height="50" relative="1" as="geometry">
            <mxPoint x="-340" y="480" as="sourcePoint" />
            <mxPoint x="-265" y="390" as="targetPoint" />
          </mxGeometry>
        </mxCell>
        <mxCell id="snSn4Ekb-qnuf4AXsMtO-54" value="" style="endArrow=classic;html=1;rounded=0;entryX=0.5;entryY=0;entryDx=0;entryDy=0;strokeWidth=3;" edge="1" parent="1" target="snSn4Ekb-qnuf4AXsMtO-15">
          <mxGeometry width="50" height="50" relative="1" as="geometry">
            <mxPoint x="-260" y="480" as="sourcePoint" />
            <mxPoint x="-37.708333333333485" y="389.9983333333332" as="targetPoint" />
            <Array as="points">
              <mxPoint x="100" y="480" />
            </Array>
          </mxGeometry>
        </mxCell>
        <mxCell id="snSn4Ekb-qnuf4AXsMtO-55" value="" style="endArrow=classic;html=1;rounded=0;strokeWidth=3;" edge="1" parent="1" target="snSn4Ekb-qnuf4AXsMtO-14">
          <mxGeometry width="50" height="50" relative="1" as="geometry">
            <mxPoint x="-130" y="480" as="sourcePoint" />
            <mxPoint x="10" y="620" as="targetPoint" />
          </mxGeometry>
        </mxCell>
        <mxCell id="snSn4Ekb-qnuf4AXsMtO-57" value="" style="endArrow=classic;html=1;rounded=0;strokeWidth=3;" edge="1" parent="1">
          <mxGeometry width="50" height="50" relative="1" as="geometry">
            <mxPoint x="309" y="435" as="sourcePoint" />
            <mxPoint x="920" y="435" as="targetPoint" />
          </mxGeometry>
        </mxCell>
        <mxCell id="snSn4Ekb-qnuf4AXsMtO-62" value="" style="endArrow=classic;html=1;rounded=0;exitX=0;exitY=0.5;exitDx=0;exitDy=0;entryX=1;entryY=0.5;entryDx=0;entryDy=0;strokeWidth=3;" edge="1" parent="1" source="snSn4Ekb-qnuf4AXsMtO-23" target="snSn4Ekb-qnuf4AXsMtO-40">
          <mxGeometry width="50" height="50" relative="1" as="geometry">
            <mxPoint x="855" y="765" as="sourcePoint" />
            <mxPoint x="905" y="600" as="targetPoint" />
          </mxGeometry>
        </mxCell>
        <mxCell id="snSn4Ekb-qnuf4AXsMtO-63" value="" style="endArrow=classic;html=1;rounded=0;exitX=0.5;exitY=1;exitDx=0;exitDy=0;entryX=0.5;entryY=0;entryDx=0;entryDy=0;strokeWidth=3;" edge="1" parent="1" source="snSn4Ekb-qnuf4AXsMtO-40" target="snSn4Ekb-qnuf4AXsMtO-24">
          <mxGeometry width="50" height="50" relative="1" as="geometry">
            <mxPoint x="855" y="650" as="sourcePoint" />
            <mxPoint x="905" y="600" as="targetPoint" />
          </mxGeometry>
        </mxCell>
        <mxCell id="snSn4Ekb-qnuf4AXsMtO-64" value="" style="endArrow=classic;html=1;rounded=0;exitX=1;exitY=0.5;exitDx=0;exitDy=0;entryX=0;entryY=0.5;entryDx=0;entryDy=0;strokeWidth=3;" edge="1" parent="1" source="snSn4Ekb-qnuf4AXsMtO-23" target="snSn4Ekb-qnuf4AXsMtO-41">
          <mxGeometry width="50" height="50" relative="1" as="geometry">
            <mxPoint x="1135" y="745" as="sourcePoint" />
            <mxPoint x="1185" y="745" as="targetPoint" />
          </mxGeometry>
        </mxCell>
        <mxCell id="snSn4Ekb-qnuf4AXsMtO-66" value="" style="endArrow=classic;html=1;rounded=0;exitX=0.5;exitY=1;exitDx=0;exitDy=0;entryX=0.5;entryY=0;entryDx=0;entryDy=0;strokeWidth=3;" edge="1" parent="1" source="snSn4Ekb-qnuf4AXsMtO-41" target="snSn4Ekb-qnuf4AXsMtO-25">
          <mxGeometry width="50" height="50" relative="1" as="geometry">
            <mxPoint x="1237" y="780" as="sourcePoint" />
            <mxPoint x="1210" y="790" as="targetPoint" />
          </mxGeometry>
        </mxCell>
        <mxCell id="snSn4Ekb-qnuf4AXsMtO-72" value="" style="endArrow=classic;html=1;rounded=0;exitX=0.5;exitY=1;exitDx=0;exitDy=0;entryX=0.5;entryY=0;entryDx=0;entryDy=0;strokeWidth=3;" edge="1" parent="1" source="snSn4Ekb-qnuf4AXsMtO-17" target="snSn4Ekb-qnuf4AXsMtO-16">
          <mxGeometry width="50" height="50" relative="1" as="geometry">
            <mxPoint x="960" y="500" as="sourcePoint" />
            <mxPoint x="820" y="480" as="targetPoint" />
            <Array as="points">
              <mxPoint x="1000" y="480" />
              <mxPoint x="845" y="480" />
            </Array>
          </mxGeometry>
        </mxCell>
        <mxCell id="snSn4Ekb-qnuf4AXsMtO-73" value="" style="endArrow=classic;html=1;rounded=0;entryX=0.5;entryY=0;entryDx=0;entryDy=0;strokeWidth=3;" edge="1" parent="1" target="snSn4Ekb-qnuf4AXsMtO-19">
          <mxGeometry width="50" height="50" relative="1" as="geometry">
            <mxPoint x="990" y="480" as="sourcePoint" />
            <mxPoint x="1240" y="480" as="targetPoint" />
            <Array as="points">
              <mxPoint x="1201" y="480" />
            </Array>
          </mxGeometry>
        </mxCell>
        <mxCell id="snSn4Ekb-qnuf4AXsMtO-74" value="" style="endArrow=classic;html=1;rounded=0;entryX=0.415;entryY=-0.052;entryDx=0;entryDy=0;entryPerimeter=0;strokeWidth=3;" edge="1" parent="1" target="snSn4Ekb-qnuf4AXsMtO-18">
          <mxGeometry width="50" height="50" relative="1" as="geometry">
            <mxPoint x="1000" y="480" as="sourcePoint" />
            <mxPoint x="1060" y="460" as="targetPoint" />
          </mxGeometry>
        </mxCell>
      </root>
    </mxGraphModel>
  </diagram>
</mxfile>
